<svg xmlns="http://www.w3.org/2000/svg" xmlns:xlink="http://www.w3.org/1999/xlink" width="500" zoomAndPan="magnify" viewBox="0 0 375 374.999991" height="500" preserveAspectRatio="xMidYMid meet" version="1.0"><defs><clipPath id="1e330604ff"><path d="M 30.152344 45.03125 L 345 45.03125 L 345 329.945312 L 30.152344 329.945312 Z M 30.152344 45.03125 " clip-rule="nonzero"/></clipPath><clipPath id="5bdc8b996c"><path d="M 300.375 270.75 L 322.125 270.75 L 322.125 316.5 L 300.375 316.5 Z M 300.375 270.75 " clip-rule="nonzero"/></clipPath></defs><g clip-path="url(#1e330604ff)"><path fill="#d94854" d="M 61.96875 56.988281 C 60.554688 55.570312 58.589844 54.691406 56.421875 54.691406 C 54.257812 54.691406 52.292969 55.570312 50.875 56.988281 C 49.457031 58.402344 48.578125 60.367188 48.578125 62.535156 C 48.578125 64.703125 49.457031 66.667969 50.875 68.082031 C 52.292969 69.5 54.257812 70.378906 56.421875 70.378906 C 58.589844 70.378906 60.554688 69.5 61.96875 68.082031 C 63.390625 66.667969 64.265625 64.703125 64.265625 62.535156 C 64.265625 60.367188 63.390625 58.402344 61.96875 56.988281 M 160.207031 306.90625 C 158.792969 305.488281 156.828125 304.609375 154.65625 304.609375 C 152.492188 304.609375 150.527344 305.488281 149.113281 306.90625 C 147.695312 308.320312 146.816406 310.289062 146.816406 312.453125 C 146.816406 314.621094 147.695312 316.582031 149.113281 318 C 150.527344 319.414062 152.492188 320.292969 154.65625 320.292969 C 156.828125 320.292969 158.792969 319.414062 160.207031 318 C 161.625 316.582031 162.503906 314.621094 162.503906 312.453125 C 162.503906 310.289062 161.625 308.320312 160.207031 306.90625 Z M 30.152344 317.578125 L 95.097656 75.21875 L 143.371094 67.660156 L 73.152344 67.660156 C 72.300781 70.433594 70.785156 72.910156 68.792969 74.902344 C 65.628906 78.066406 61.25 80.03125 56.421875 80.03125 C 51.597656 80.03125 47.21875 78.066406 44.054688 74.902344 C 40.890625 71.742188 38.929688 67.363281 38.929688 62.53125 C 38.929688 57.707031 40.890625 53.328125 44.054688 50.164062 C 47.21875 47 51.597656 45.039062 56.421875 45.039062 C 61.25 45.039062 65.628906 47 68.792969 50.164062 C 70.785156 52.15625 72.300781 54.636719 73.152344 57.410156 L 179.113281 57.410156 L 219.730469 178.386719 C 221.039062 181.824219 222.15625 186.648438 223.027344 192.863281 C 223.878906 199.136719 224.511719 206.671875 224.988281 215.476562 C 225.492188 210.894531 226.367188 205.828125 227.492188 200.28125 C 228.601562 194.789062 230.230469 188.039062 232.347656 180.136719 L 265.234375 57.410156 L 344.835938 57.410156 L 275.128906 317.578125 L 171.386719 317.578125 C 170.539062 320.347656 169.019531 322.828125 167.03125 324.824219 C 163.867188 327.984375 159.488281 329.949219 154.65625 329.949219 C 149.832031 329.949219 145.453125 327.984375 142.289062 324.824219 C 139.125 321.664062 137.164062 317.28125 137.164062 312.453125 C 137.164062 307.625 139.125 303.246094 142.289062 300.082031 C 145.453125 296.917969 149.832031 294.960938 154.65625 294.960938 C 159.488281 294.960938 163.867188 296.917969 167.03125 300.082031 C 169.019531 302.078125 170.539062 304.558594 171.386719 307.328125 L 235.773438 307.328125 L 188.355469 296.507812 L 154.675781 197.445312 C 153.382812 193.949219 152.253906 188.941406 151.324219 182.488281 C 150.417969 175.976562 149.753906 168.558594 149.285156 160.175781 C 148.882812 164.820312 148.152344 169.582031 147.171875 174.589844 C 146.191406 179.59375 144.484375 186.648438 142.058594 195.699219 L 109.398438 317.578125 Z M 30.152344 317.578125 " fill-opacity="1" fill-rule="nonzero"/></g><g clip-path="url(#5bdc8b996c)"><path fill="#f5af0c" d="M 310.644531 291.296875 L 322.113281 270.75 L 300.394531 295.953125 L 311.863281 295.953125 L 300.394531 316.5 L 322.113281 291.296875 L 310.644531 291.296875 " fill-opacity="1" fill-rule="nonzero"/></g></svg>